<svg width="631" height="264" viewBox="0 0 631 264" fill="#fff" xmlns="http://www.w3.org/2000/svg">
<path d="M485.555 263L146.91 263L145.163 262.959C114.905 262.256 89.8306 243.657 86.8442 219.726L86.6188 218.073H84.3086H84.0269C68.7569 218.073 53.8813 210.757 42.1611 197.49C30.3283 184.057 22.496 165.499 20.1295 145.247L20.0731 144.751L15.34 139.998C12.6917 137.352 8.522 133.922 3 131.359C7.5641 129.293 10.8322 126.896 15.2836 123.176L19.9041 117.968L20.2985 117.183C22.8905 97.3023 30.8354 79.1164 42.5555 66.0144C54.2193 53.0363 68.9259 45.8859 83.9705 45.8859L86.5625 45.9273L86.7879 44.274C89.8306 20.3018 114.905 1.70263 145.107 1.04133L485.555 1L487.076 1.08266C501.501 1.6613 515.193 6.33176 525.674 14.2674C536.155 22.203 542.747 32.8665 544.156 44.274L544.381 45.9273H546.691H546.973C562.243 45.9273 577.119 53.2429 588.839 66.5517C600.672 79.9844 608.504 98.5422 610.87 118.795L610.927 119.291L615.66 124.044C618.308 126.689 622.478 130.119 628 132.682C624.112 134.459 621.182 136.443 617.632 139.254C616.393 140.246 615.266 141.32 614.308 142.436L611.04 146.073L610.645 146.859C608.053 166.739 600.108 184.925 588.388 198.027C576.724 211.005 562.018 218.155 546.973 218.155L544.381 218.114L544.156 219.767C542.691 231.175 536.155 241.838 525.674 249.774C515.193 257.71 501.501 262.38 487.076 262.959L485.555 263Z" fill="#E9DCC9" stroke="#E9B47A" stroke-width="2" stroke-miterlimit="10"/>
</svg>
