<svg width="224" height="296" viewBox="0 0 224 296" fill="none" xmlns="http://www.w3.org/2000/svg">
<circle cx="106.5" cy="100.5" r="60.5" fill="#E9B47A"/>
<path d="M145.165 147.688C145.227 158.277 141.467 167.389 134.07 174.9C125.996 183.088 117.736 191.092 109.723 199.341C107.75 201.373 106.456 201.681 104.299 199.464C96.2855 191.215 87.9642 183.273 80.0127 175.023C68.7944 163.326 66.0207 149.658 71.26 134.39C72.616 130.45 72.9242 130.45 75.7596 133.282C76.6226 134.144 77.4855 135.067 78.4101 135.868C79.5813 136.914 79.8895 138.084 79.458 139.685C76.4993 151.197 79.1498 161.171 87.7793 169.482C93.4501 174.962 99.0592 180.564 104.545 186.228C106.209 187.952 107.442 188.321 109.291 186.413C115.455 180.071 121.804 173.976 127.968 167.635C136.474 158.831 138.262 144.918 132.344 134.205C130.803 131.435 130.372 131.373 128.091 133.59C122.112 139.5 116.195 145.472 110.216 151.444C106.949 154.707 106.949 154.707 103.805 151.505C90.4297 138.145 77.0541 124.786 63.74 111.426C59.6718 107.363 59.7335 107.363 55.542 111.18C47.4057 118.568 35.8175 116.967 30.8864 107.855C27.6195 101.884 28.6674 94.4957 33.4752 89.6936C38.2831 84.8915 45.8647 83.7218 51.6587 86.9232C54.3709 88.4007 54.4941 89.0164 52.3984 91.1712C50.241 93.3875 48.5152 95.9733 44.447 94.742C41.9198 94.0032 39.824 96.158 38.8995 98.6821C38.0365 101.145 38.6529 103.361 40.687 105.085C42.7211 106.747 45.0017 106.993 47.2824 105.701C48.3302 105.085 49.2548 104.223 50.1178 103.361C56.405 96.8352 62.8154 90.494 69.1026 84.0296C71.0134 82.0595 72.2462 82.0595 74.0954 84.0296C78.9032 89.1395 78.7183 87.7851 74.0337 92.6488C72.1846 94.5573 70.2738 96.4658 68.3629 98.3128C66.822 99.7288 66.7603 100.96 68.3013 102.438C72.801 106.809 77.1773 111.241 81.6153 115.736C82.7865 116.967 83.7111 117.09 84.9439 115.797C89.3819 111.241 93.8815 106.747 98.4428 102.314C100.107 100.714 99.4907 99.5441 98.1346 98.1896C92.4638 92.5872 86.793 86.8616 81.1222 81.2592C64.6646 64.8828 64.603 41.4264 80.999 24.9885C88.6422 17.2313 96.532 9.53563 104.175 1.65528C106.394 -0.622637 107.689 -0.499507 109.846 1.71684C117.736 9.78189 125.934 17.6007 133.762 25.7273C145.042 37.4863 147.939 51.2153 142.761 66.6682C141.467 70.5468 141.22 70.4237 138.2 67.7764C135.241 65.1906 134.255 62.728 135.118 58.48C137.091 49.2452 134.872 40.6877 128.215 33.6692C121.927 27.0817 115.332 20.7405 108.921 14.2146C107.504 12.7986 106.394 12.7986 105.038 14.2146C98.3812 20.9252 91.5392 27.4511 85.1288 34.3464C77.3622 42.8424 76.0062 56.7562 81.5537 66.6066C83.218 69.5002 83.5878 69.6233 85.9301 67.2223C92.0324 61.1273 98.1963 55.0939 104.175 48.9374C106.209 46.8442 107.504 46.7826 109.6 48.8758C123.407 62.7896 137.275 76.6418 151.206 90.494C154.349 93.6338 154.349 93.6338 157.678 90.4324C165.938 82.3673 177.834 83.5371 183.073 92.9566C186.402 98.9284 185.354 106.562 180.423 111.426C175.553 116.228 168.033 117.213 162.178 113.95C160.144 112.781 159.404 111.734 161.5 109.887C163.842 107.732 165.629 105.085 169.759 106.255C172.225 106.932 174.382 104.839 175.184 102.191C175.985 99.7288 175.245 97.4508 173.211 95.8501C171.054 94.1263 168.65 93.9416 166.369 95.5423C164.89 96.5889 163.595 98.0049 162.301 99.2978C156.384 105.146 150.466 110.995 144.672 116.967C142.885 118.752 141.713 118.876 139.926 117.029C135.056 111.857 135.118 113.212 139.741 108.409C141.713 106.316 143.748 104.285 145.843 102.314C147.138 101.022 147.138 99.9134 145.843 98.6206C141.467 94.311 137.091 90.0014 132.776 85.5687C130.927 83.6602 129.694 84.4606 128.153 85.9997C118.044 96.158 107.812 106.316 97.6415 116.475C95.6691 118.445 93.7582 120.415 91.7858 122.323C90.4914 123.555 90.3065 124.601 91.6625 125.956C96.2238 130.388 100.723 134.944 105.161 139.438C106.518 140.793 107.565 140.547 108.798 139.315C113.113 134.944 117.489 130.573 121.866 126.263C123.407 124.786 123.468 123.678 121.866 122.2C119.092 119.614 116.503 116.782 113.791 114.197C112.25 112.719 112.25 111.611 113.791 110.133C119.585 104.408 118.167 105.208 123.037 110.01C127.66 114.566 132.468 118.876 136.597 123.862C142.33 130.758 145.227 138.7 145.165 147.688ZM107.319 93.0181C107.75 92.7103 108.367 92.3409 108.86 91.8484C113.298 87.4157 117.674 82.983 122.174 78.6119C123.653 77.1959 123.407 76.0877 122.051 74.7948C117.736 70.5468 113.421 66.2988 109.23 61.9892C107.689 60.4501 106.579 60.2038 104.915 61.8661C100.723 66.2372 96.4087 70.4852 92.094 74.7333C90.6147 76.1493 90.4297 77.2574 91.9707 78.7966C96.4087 83.1061 100.723 87.4773 105.038 91.7868C105.593 92.3409 106.148 93.0181 107.319 93.0181Z" fill="#B8525D"/>
<g clip-path="url(#clip0_2_102)">
<path d="M163.2 259.3C176.2 259.3 189.2 259.3 202.2 259.3C209.2 259.3 211.8 257 212 250.9C212.3 241.3 209.7 236.8 202.8 236.6C189.7 236.3 176.5 236.4 163.3 236.6C161.4 236.6 159.5 237.6 157.6 238.1C155.9 238.6 154.7 241.3 152.9 240C150.6 238.4 148.7 236.2 146.9 234.1C145.8 232.7 146.8 231.2 147.8 230.1C150.5 227.1 153.9 225.3 157.9 225.3C174.7 225.2 191.5 225.1 208.4 225.3C216.4 225.4 223.1 232.6 223.3 240.6C223.4 245.6 223.4 250.6 223.3 255.6C223.2 265 217.3 271.2 207.7 271.4C196.4 271.6 185 271.6 173.7 271.4C165.4 271.3 157.1 271.8 148.8 272.2C145.5 272.3 143.8 273.6 143.4 276.8C142.3 285.9 137.9 292.7 128.6 294.8C118.2 297.1 109.7 292.6 102.3 285.9C98.1 282.1 103.4 280.3 104.8 277.9C106.2 275.3 108.2 275.1 110.5 277.2C114.3 280.8 118.7 282.8 124.1 282.4C126.3 282.2 128.4 281.7 129.8 279.8C131 278 132.5 276.1 131.5 273.8C130.6 271.6 128.2 271.8 126.3 271.7C123.3 271.6 120.3 271.7 117.3 271.5C108.8 271 102.4 264.4 102.1 256C102 251.5 101.9 247 102.1 242.5C102.5 232.4 109.7 225.5 119.8 225.3C122.1 225.3 124.5 225.2 126.8 225.3C134.7 225.6 140.7 230.2 143.1 237.8C144.2 241.4 144.3 245 144.2 248.7C144.1 255.3 143.6 255.7 137.1 255.7C133.4 255.7 131.9 254.2 132.1 250.6C132.2 249.1 132.1 247.6 132.1 246.1C131.8 240.2 128.2 236.7 122.5 236.9C117.1 237.1 114.4 240.1 114.2 246C114.2 247.5 114.2 249 114.2 250.5C114.4 257.3 116.4 259.4 123.3 259.4C136.6 259.3 149.9 259.2 163.2 259.3Z" fill="#553A59"/>
<path d="M39.7 272.2C33 272.2 26.4 272.3 19.7 272.2C7.00001 271.9 0.100011 264.8 1.08518e-05 252.1C1.08518e-05 248.6 -0.0999891 245.1 1.08518e-05 241.6C0.400011 232.2 7.30001 225.4 16.7 225.1C18.9 225 21 225.3 23.2 225C27.8 224.5 29.4 226.4 29.3 231C29.3 235.6 27.6 237.2 23.1 237.2C14.6 237.2 12.4 239.5 12.3 247.7C12.2 256.9 14.5 259.1 23.7 259.2C35.4 259.2 47 259.2 58.7 259.2C66.4 259.2 68.8 256.8 68.9 249.1C69 242.8 69.1 236.4 68.9 230.1C68.8 225.5 71.4 225 75 225C78.5 225 81.3 225.3 81.2 229.9C81 237.2 81.2 244.6 81.1 251.9C80.9 264.6 74 271.7 61.2 272.1C54.1 272.3 46.9 272.2 39.7 272.2Z" fill="#553A59"/>
<path d="M97.2 244.7C97.2 248.7 97.3 252.7 97.2 256.7C97 261.1 98.2 264.9 101.4 268C105.9 272.4 100.8 274.3 99 276.8C96.7 280 94.7 278.3 92.5 276.3C87 271.1 85.5 264.3 85.3 257.2C85 248.2 85.4 239.3 85.1 230.3C85 225.4 87.7 225 91.4 225C95.1 225 97.5 225.8 97.3 230.2C97.1 235.1 97.2 239.9 97.2 244.7Z" fill="#553A59"/>
<path d="M76.9 289.4C70.4 289.4 70.1 289 70.1 282.2C70.1 275.8 70.7 275.3 77.3 275.3C84 275.3 84.3 275.6 84.2 282.8C84.3 289.2 84 289.4 76.9 289.4Z" fill="#553A59"/>
<path d="M155 289.4C148.1 289.4 147.9 289.2 148 282C148 275.6 148.4 275.3 154.8 275.3C161.7 275.3 162.2 275.8 162.2 282.6C162.1 289.1 161.8 289.4 155 289.4Z" fill="#553A59"/>
</g>
<defs>
<clipPath id="clip0_2_102">
<rect width="223.3" height="70.3" fill="white" transform="translate(0 225)"/>
</clipPath>
</defs>
</svg>
