<?xml version="1.0" encoding="UTF-8"?><svg id="Layer_1" xmlns="http://www.w3.org/2000/svg" viewBox="0 0 21 27"><defs><style>.cls-1{fill:#b8525d;}.cls-2{fill:#e9b47a;}</style></defs><ellipse id="Ellipse_1" class="cls-2" cx="10.51" cy="13.5" rx="8" ry="8.5"/><path id="Vector" class="cls-1" d="m15.64,19.84c0,1.42-.5,2.65-1.49,3.66-1.09,1.1-2.2,2.18-3.28,3.28-.27.27-.44.31-.73.02-1.08-1.11-2.2-2.17-3.27-3.28-1.51-1.57-1.88-3.41-1.18-5.46.18-.53.22-.53.61-.15.12.12.23.24.36.35.16.14.2.3.14.51-.4,1.55-.04,2.89,1.12,4,.76.74,1.52,1.49,2.26,2.25.22.23.39.28.64.02.83-.85,1.68-1.67,2.51-2.52,1.15-1.18,1.39-3.05.59-4.49-.21-.37-.27-.38-.57-.08-.8.79-1.6,1.6-2.41,2.4q-.44.44-.86,0c-1.8-1.79-3.6-3.59-5.39-5.38-.55-.55-.54-.55-1.1-.03-1.1.99-2.66.78-3.32-.45-.44-.8-.3-1.79.35-2.44.65-.65,1.67-.8,2.45-.37.37.2.38.28.1.57-.29.3-.52.65-1.07.48-.34-.1-.62.19-.75.53-.12.33-.03.63.24.86.27.22.58.26.89.08.14-.08.27-.2.38-.31.85-.88,1.71-1.73,2.56-2.6.26-.26.42-.26.67,0,.65.69.62.5,0,1.16-.25.26-.51.51-.76.76-.21.19-.22.36,0,.55.61.59,1.19,1.18,1.79,1.79.16.17.28.18.45,0,.6-.61,1.2-1.22,1.82-1.81.22-.22.14-.37-.04-.55-.76-.75-1.53-1.52-2.29-2.27-2.22-2.2-2.22-5.35-.02-7.56,1.03-1.04,2.09-2.08,3.12-3.13.3-.31.47-.29.76,0,1.06,1.08,2.17,2.13,3.22,3.23,1.52,1.58,1.91,3.42,1.21,5.5-.17.52-.21.5-.61.15-.4-.35-.53-.68-.41-1.25.27-1.24-.03-2.39-.93-3.33-.85-.88-1.73-1.74-2.6-2.61-.19-.19-.34-.19-.52,0-.9.9-1.82,1.78-2.68,2.7-1.05,1.14-1.23,3.01-.48,4.33.22.39.27.41.59.08.82-.82,1.65-1.63,2.46-2.46.27-.28.45-.29.73,0,1.86,1.87,3.73,3.73,5.6,5.59q.42.42.87,0c1.11-1.08,2.71-.93,3.42.34.45.8.31,1.83-.36,2.48-.66.65-1.67.78-2.46.34-.27-.16-.37-.3-.09-.55.32-.29.56-.64,1.11-.49.33.09.62-.19.73-.55.11-.33,0-.64-.27-.85-.29-.23-.61-.26-.92-.04-.2.14-.37.33-.55.5-.8.79-1.59,1.57-2.37,2.37-.24.24-.4.26-.64,0-.66-.69-.65-.51-.02-1.16.27-.28.54-.55.82-.82.17-.17.17-.32,0-.5-.59-.58-1.18-1.16-1.76-1.75-.25-.26-.41-.15-.62.06-1.36,1.36-2.74,2.73-4.11,4.09-.27.26-.52.53-.79.79-.17.17-.2.31-.02.49.61.6,1.22,1.21,1.82,1.81.18.18.32.15.49-.02.58-.59,1.17-1.17,1.76-1.75.21-.2.22-.35,0-.55-.37-.35-.72-.73-1.09-1.08-.21-.2-.21-.35,0-.55.78-.77.59-.66,1.24-.02.62.61,1.27,1.19,1.83,1.86.77.93,1.16,1.99,1.15,3.2Zm-5.09-7.34c.06-.04.14-.09.21-.16.6-.6,1.19-1.19,1.79-1.78.2-.19.17-.34-.02-.51-.58-.57-1.16-1.14-1.73-1.72-.21-.21-.36-.24-.58-.02-.56.59-1.15,1.16-1.73,1.73-.2.19-.22.34-.02.55.6.58,1.18,1.17,1.76,1.74.07.07.15.17.31.17Z"/></svg>